<mxfile host="app.diagrams.net" modified="2022-11-29T09:43:51.424Z" agent="5.0 (X11; Ubuntu)" etag="6t2VGKq-m6wKAEAbJe_Z" version="20.6.0" type="github">
  <diagram id="4P2TpbgXzhP-4KFeG8Nv" name="Page-1">
    <mxGraphModel dx="690" dy="418" grid="1" gridSize="10" guides="1" tooltips="1" connect="1" arrows="1" fold="1" page="1" pageScale="1" pageWidth="827" pageHeight="1169" math="0" shadow="0">
      <root>
        <mxCell id="0" />
        <mxCell id="1" parent="0" />
        <mxCell id="2" value="Feature-diagramm" style="text;html=1;resizable=0;autosize=1;align=center;verticalAlign=middle;points=[];fillColor=none;strokeColor=none;rounded=0;" parent="1" vertex="1">
          <mxGeometry x="400" y="15" width="120" height="30" as="geometry" />
        </mxCell>
        <mxCell id="oijMVtfoC-c7ZMny98bf-4" value="" style="group" parent="1" vertex="1" connectable="0">
          <mxGeometry x="180" y="210" width="120" height="80" as="geometry" />
        </mxCell>
        <mxCell id="oijMVtfoC-c7ZMny98bf-2" value="" style="ellipse;whiteSpace=wrap;html=1;" parent="oijMVtfoC-c7ZMny98bf-4" vertex="1">
          <mxGeometry width="120" height="80" as="geometry" />
        </mxCell>
        <mxCell id="oijMVtfoC-c7ZMny98bf-3" value="einloggen" style="text;html=1;strokeColor=none;fillColor=none;align=center;verticalAlign=middle;whiteSpace=wrap;rounded=0;" parent="oijMVtfoC-c7ZMny98bf-4" vertex="1">
          <mxGeometry x="30" y="20" width="60" height="30" as="geometry" />
        </mxCell>
        <mxCell id="oijMVtfoC-c7ZMny98bf-87" style="edgeStyle=orthogonalEdgeStyle;rounded=0;orthogonalLoop=1;jettySize=auto;html=1;exitX=0;exitY=1;exitDx=0;exitDy=0;exitPerimeter=0;" parent="1" source="oijMVtfoC-c7ZMny98bf-5" target="oijMVtfoC-c7ZMny98bf-85" edge="1">
          <mxGeometry relative="1" as="geometry">
            <mxPoint x="150" y="810.0000000000002" as="targetPoint" />
            <Array as="points">
              <mxPoint x="80" y="870" />
            </Array>
          </mxGeometry>
        </mxCell>
        <mxCell id="oijMVtfoC-c7ZMny98bf-88" style="edgeStyle=orthogonalEdgeStyle;rounded=0;orthogonalLoop=1;jettySize=auto;html=1;exitX=0.75;exitY=0.1;exitDx=0;exitDy=0;exitPerimeter=0;entryX=0;entryY=0.5;entryDx=0;entryDy=0;" parent="1" source="oijMVtfoC-c7ZMny98bf-5" target="oijMVtfoC-c7ZMny98bf-79" edge="1">
          <mxGeometry relative="1" as="geometry" />
        </mxCell>
        <mxCell id="oijMVtfoC-c7ZMny98bf-89" style="edgeStyle=orthogonalEdgeStyle;rounded=0;orthogonalLoop=1;jettySize=auto;html=1;exitX=0.5;exitY=0.5;exitDx=0;exitDy=0;exitPerimeter=0;entryX=0;entryY=0.5;entryDx=0;entryDy=0;" parent="1" source="oijMVtfoC-c7ZMny98bf-5" target="oijMVtfoC-c7ZMny98bf-82" edge="1">
          <mxGeometry relative="1" as="geometry">
            <Array as="points">
              <mxPoint x="95" y="800" />
              <mxPoint x="257" y="800" />
              <mxPoint x="257" y="830" />
            </Array>
          </mxGeometry>
        </mxCell>
        <mxCell id="bDuGjaqNq2e8TzomaUQW-6" style="edgeStyle=orthogonalEdgeStyle;rounded=0;orthogonalLoop=1;jettySize=auto;html=1;" parent="1" source="oijMVtfoC-c7ZMny98bf-5" target="bDuGjaqNq2e8TzomaUQW-3" edge="1">
          <mxGeometry relative="1" as="geometry">
            <Array as="points">
              <mxPoint x="390" y="730" />
              <mxPoint x="390" y="730" />
            </Array>
          </mxGeometry>
        </mxCell>
        <mxCell id="oijMVtfoC-c7ZMny98bf-5" value="Besucher" style="shape=umlActor;verticalLabelPosition=bottom;verticalAlign=top;html=1;outlineConnect=0;" parent="1" vertex="1">
          <mxGeometry x="80" y="670" width="30" height="60" as="geometry" />
        </mxCell>
        <mxCell id="oijMVtfoC-c7ZMny98bf-15" style="edgeStyle=orthogonalEdgeStyle;rounded=0;orthogonalLoop=1;jettySize=auto;html=1;entryX=0;entryY=0.5;entryDx=0;entryDy=0;" parent="1" source="oijMVtfoC-c7ZMny98bf-10" target="oijMVtfoC-c7ZMny98bf-2" edge="1">
          <mxGeometry relative="1" as="geometry" />
        </mxCell>
        <mxCell id="oijMVtfoC-c7ZMny98bf-10" value="Handwerker" style="shape=umlActor;verticalLabelPosition=bottom;verticalAlign=top;html=1;outlineConnect=0;" parent="1" vertex="1">
          <mxGeometry x="90" y="220" width="30" height="60" as="geometry" />
        </mxCell>
        <mxCell id="oijMVtfoC-c7ZMny98bf-25" style="edgeStyle=orthogonalEdgeStyle;rounded=0;orthogonalLoop=1;jettySize=auto;html=1;exitX=1;exitY=0.3333333333333333;exitDx=0;exitDy=0;exitPerimeter=0;entryX=0;entryY=0.5;entryDx=0;entryDy=0;" parent="1" source="oijMVtfoC-c7ZMny98bf-12" target="oijMVtfoC-c7ZMny98bf-19" edge="1">
          <mxGeometry relative="1" as="geometry" />
        </mxCell>
        <mxCell id="oijMVtfoC-c7ZMny98bf-12" value="Administrator" style="shape=umlActor;verticalLabelPosition=bottom;verticalAlign=top;html=1;outlineConnect=0;" parent="1" vertex="1">
          <mxGeometry x="90" y="70" width="30" height="60" as="geometry" />
        </mxCell>
        <mxCell id="oijMVtfoC-c7ZMny98bf-18" value="" style="group" parent="1" vertex="1" connectable="0">
          <mxGeometry x="190" y="50" width="120" height="80" as="geometry" />
        </mxCell>
        <mxCell id="oijMVtfoC-c7ZMny98bf-19" value="" style="ellipse;whiteSpace=wrap;html=1;" parent="oijMVtfoC-c7ZMny98bf-18" vertex="1">
          <mxGeometry width="120" height="80" as="geometry" />
        </mxCell>
        <mxCell id="oijMVtfoC-c7ZMny98bf-20" value="einloggen" style="text;html=1;strokeColor=none;fillColor=none;align=center;verticalAlign=middle;whiteSpace=wrap;rounded=0;" parent="oijMVtfoC-c7ZMny98bf-18" vertex="1">
          <mxGeometry x="30" y="20" width="60" height="30" as="geometry" />
        </mxCell>
        <mxCell id="oijMVtfoC-c7ZMny98bf-26" value="" style="group" parent="1" vertex="1" connectable="0">
          <mxGeometry x="440" y="170" width="120" height="80" as="geometry" />
        </mxCell>
        <mxCell id="oijMVtfoC-c7ZMny98bf-27" value="" style="ellipse;whiteSpace=wrap;html=1;" parent="oijMVtfoC-c7ZMny98bf-26" vertex="1">
          <mxGeometry width="120" height="80" as="geometry" />
        </mxCell>
        <mxCell id="oijMVtfoC-c7ZMny98bf-28" value="Vermessung von RaÃ¼men verwalten" style="text;html=1;strokeColor=none;fillColor=none;align=center;verticalAlign=middle;whiteSpace=wrap;rounded=0;" parent="oijMVtfoC-c7ZMny98bf-26" vertex="1">
          <mxGeometry x="30" y="20" width="60" height="30" as="geometry" />
        </mxCell>
        <mxCell id="oijMVtfoC-c7ZMny98bf-29" value="" style="group" parent="1" vertex="1" connectable="0">
          <mxGeometry x="414" y="45" width="250" height="100" as="geometry" />
        </mxCell>
        <mxCell id="oijMVtfoC-c7ZMny98bf-30" value="" style="ellipse;whiteSpace=wrap;html=1;" parent="oijMVtfoC-c7ZMny98bf-29" vertex="1">
          <mxGeometry width="250.00000000000003" height="100" as="geometry" />
        </mxCell>
        <mxCell id="oijMVtfoC-c7ZMny98bf-31" value="Handwerker verwalten" style="text;html=1;strokeColor=none;fillColor=none;align=center;verticalAlign=middle;whiteSpace=wrap;rounded=0;" parent="oijMVtfoC-c7ZMny98bf-29" vertex="1">
          <mxGeometry x="62.50000000000001" y="25" width="125.00000000000001" height="37.5" as="geometry" />
        </mxCell>
        <mxCell id="oijMVtfoC-c7ZMny98bf-34" style="edgeStyle=orthogonalEdgeStyle;rounded=0;orthogonalLoop=1;jettySize=auto;html=1;exitX=1;exitY=0.5;exitDx=0;exitDy=0;" parent="1" source="oijMVtfoC-c7ZMny98bf-19" edge="1">
          <mxGeometry relative="1" as="geometry">
            <mxPoint x="420" y="90.76923076923072" as="targetPoint" />
          </mxGeometry>
        </mxCell>
        <mxCell id="oijMVtfoC-c7ZMny98bf-35" style="edgeStyle=orthogonalEdgeStyle;rounded=0;orthogonalLoop=1;jettySize=auto;html=1;exitX=0.5;exitY=1;exitDx=0;exitDy=0;" parent="1" source="oijMVtfoC-c7ZMny98bf-19" target="oijMVtfoC-c7ZMny98bf-27" edge="1">
          <mxGeometry relative="1" as="geometry" />
        </mxCell>
        <mxCell id="oijMVtfoC-c7ZMny98bf-36" value="" style="group" parent="1" vertex="1" connectable="0">
          <mxGeometry x="340" y="250" width="120" height="80" as="geometry" />
        </mxCell>
        <mxCell id="oijMVtfoC-c7ZMny98bf-37" value="" style="ellipse;whiteSpace=wrap;html=1;" parent="oijMVtfoC-c7ZMny98bf-36" vertex="1">
          <mxGeometry width="120" height="80" as="geometry" />
        </mxCell>
        <mxCell id="oijMVtfoC-c7ZMny98bf-38" value="Raum vermessen" style="text;html=1;strokeColor=none;fillColor=none;align=center;verticalAlign=middle;whiteSpace=wrap;rounded=0;" parent="oijMVtfoC-c7ZMny98bf-36" vertex="1">
          <mxGeometry x="30" y="20" width="60" height="30" as="geometry" />
        </mxCell>
        <mxCell id="oijMVtfoC-c7ZMny98bf-78" value="" style="group" parent="1" vertex="1" connectable="0">
          <mxGeometry x="200" y="600" width="130" height="100" as="geometry" />
        </mxCell>
        <mxCell id="oijMVtfoC-c7ZMny98bf-79" value="" style="ellipse;whiteSpace=wrap;html=1;" parent="oijMVtfoC-c7ZMny98bf-78" vertex="1">
          <mxGeometry width="130" height="100" as="geometry" />
        </mxCell>
        <mxCell id="oijMVtfoC-c7ZMny98bf-80" value="Vorstellung lesen" style="text;html=1;strokeColor=none;fillColor=none;align=center;verticalAlign=middle;whiteSpace=wrap;rounded=0;" parent="oijMVtfoC-c7ZMny98bf-78" vertex="1">
          <mxGeometry x="32.5" y="25" width="65" height="37.5" as="geometry" />
        </mxCell>
        <mxCell id="oijMVtfoC-c7ZMny98bf-81" value="" style="group" parent="1" vertex="1" connectable="0">
          <mxGeometry x="404" y="790" width="120" height="80" as="geometry" />
        </mxCell>
        <mxCell id="oijMVtfoC-c7ZMny98bf-82" value="" style="ellipse;whiteSpace=wrap;html=1;" parent="oijMVtfoC-c7ZMny98bf-81" vertex="1">
          <mxGeometry width="120" height="80" as="geometry" />
        </mxCell>
        <mxCell id="oijMVtfoC-c7ZMny98bf-83" value="einloggen" style="text;html=1;strokeColor=none;fillColor=none;align=center;verticalAlign=middle;whiteSpace=wrap;rounded=0;" parent="oijMVtfoC-c7ZMny98bf-81" vertex="1">
          <mxGeometry x="30" y="20" width="60" height="30" as="geometry" />
        </mxCell>
        <mxCell id="oijMVtfoC-c7ZMny98bf-84" value="" style="group" parent="1" vertex="1" connectable="0">
          <mxGeometry x="150" y="830" width="120" height="80" as="geometry" />
        </mxCell>
        <mxCell id="oijMVtfoC-c7ZMny98bf-85" value="" style="ellipse;whiteSpace=wrap;html=1;" parent="oijMVtfoC-c7ZMny98bf-84" vertex="1">
          <mxGeometry width="120" height="80" as="geometry" />
        </mxCell>
        <mxCell id="oijMVtfoC-c7ZMny98bf-86" value="Raum versmessen" style="text;html=1;strokeColor=none;fillColor=none;align=center;verticalAlign=middle;whiteSpace=wrap;rounded=0;" parent="oijMVtfoC-c7ZMny98bf-84" vertex="1">
          <mxGeometry x="30" y="20" width="60" height="30" as="geometry" />
        </mxCell>
        <mxCell id="oijMVtfoC-c7ZMny98bf-90" style="edgeStyle=orthogonalEdgeStyle;rounded=0;orthogonalLoop=1;jettySize=auto;html=1;exitX=1;exitY=0.5;exitDx=0;exitDy=0;entryX=0;entryY=0.5;entryDx=0;entryDy=0;" parent="1" source="oijMVtfoC-c7ZMny98bf-2" target="oijMVtfoC-c7ZMny98bf-37" edge="1">
          <mxGeometry relative="1" as="geometry" />
        </mxCell>
        <mxCell id="bDuGjaqNq2e8TzomaUQW-3" value="" style="ellipse;whiteSpace=wrap;html=1;" parent="1" vertex="1">
          <mxGeometry x="420" y="680" width="120" height="80" as="geometry" />
        </mxCell>
        <mxCell id="bDuGjaqNq2e8TzomaUQW-4" value="anmelden" style="text;html=1;strokeColor=none;fillColor=none;align=center;verticalAlign=middle;whiteSpace=wrap;rounded=0;" parent="1" vertex="1">
          <mxGeometry x="450" y="705" width="60" height="30" as="geometry" />
        </mxCell>
        <mxCell id="5JFhxHoKSF3lhBzCipbz-2" value="" style="group" vertex="1" connectable="0" parent="1">
          <mxGeometry x="320" y="360" width="120" height="80" as="geometry" />
        </mxCell>
        <mxCell id="5JFhxHoKSF3lhBzCipbz-3" value="" style="ellipse;whiteSpace=wrap;html=1;" vertex="1" parent="5JFhxHoKSF3lhBzCipbz-2">
          <mxGeometry width="120" height="80" as="geometry" />
        </mxCell>
        <mxCell id="5JFhxHoKSF3lhBzCipbz-4" value="Vermessung speichern" style="text;html=1;strokeColor=none;fillColor=none;align=center;verticalAlign=middle;whiteSpace=wrap;rounded=0;" vertex="1" parent="5JFhxHoKSF3lhBzCipbz-2">
          <mxGeometry x="30" y="20" width="60" height="30" as="geometry" />
        </mxCell>
        <mxCell id="5JFhxHoKSF3lhBzCipbz-6" style="edgeStyle=orthogonalEdgeStyle;rounded=0;orthogonalLoop=1;jettySize=auto;html=1;exitX=0.5;exitY=1;exitDx=0;exitDy=0;entryX=0;entryY=0.375;entryDx=0;entryDy=0;entryPerimeter=0;" edge="1" parent="1" source="oijMVtfoC-c7ZMny98bf-2" target="5JFhxHoKSF3lhBzCipbz-3">
          <mxGeometry relative="1" as="geometry" />
        </mxCell>
        <mxCell id="5JFhxHoKSF3lhBzCipbz-7" value="" style="group" vertex="1" connectable="0" parent="1">
          <mxGeometry x="190" y="440" width="120" height="80" as="geometry" />
        </mxCell>
        <mxCell id="5JFhxHoKSF3lhBzCipbz-8" value="" style="ellipse;whiteSpace=wrap;html=1;" vertex="1" parent="5JFhxHoKSF3lhBzCipbz-7">
          <mxGeometry width="120" height="80" as="geometry" />
        </mxCell>
        <mxCell id="5JFhxHoKSF3lhBzCipbz-9" value="Vermessung ansehen" style="text;html=1;strokeColor=none;fillColor=none;align=center;verticalAlign=middle;whiteSpace=wrap;rounded=0;" vertex="1" parent="5JFhxHoKSF3lhBzCipbz-7">
          <mxGeometry x="30" y="20" width="60" height="30" as="geometry" />
        </mxCell>
        <mxCell id="5JFhxHoKSF3lhBzCipbz-10" style="edgeStyle=orthogonalEdgeStyle;rounded=0;orthogonalLoop=1;jettySize=auto;html=1;exitX=0;exitY=1;exitDx=0;exitDy=0;" edge="1" parent="1" source="oijMVtfoC-c7ZMny98bf-2">
          <mxGeometry relative="1" as="geometry">
            <mxPoint x="210" y="450" as="targetPoint" />
          </mxGeometry>
        </mxCell>
      </root>
    </mxGraphModel>
  </diagram>
</mxfile>
